<svg width="1920" height="277" viewBox="0 0 1920 277" fill="none" xmlns="http://www.w3.org/2000/svg">
  <g clip-path="url(#clip0_437_768)">
    <path d="M1920 -799.115H-2V277H1920V-799.115Z" fill="white" />
    <path d="M-2 33.8777L272.285 31.8849L546.571 35.8705L820.856 91.6691L1097.14 135.511L1371.43 71.741L1645.71 23.9137L1920 59.7842V278.993H1645.71H1371.43H1097.14H820.856H546.571H272.285H-2V33.8777Z" fill="#EB9FBD" />
    <path d="M-2 155.439L272.285 79.7123L546.571 171.381L820.856 71.741L1097.14 127.54L1371.43 93.6619L1645.71 149.46L1920 75.7266V278.993H1645.71H1371.43H1097.14H820.856H546.571H272.285H-2V155.439Z" fill="#D27698" />
    <path d="M-2 199.281L272.285 181.345L546.571 189.317L820.856 129.532L1097.14 193.302L1371.43 165.403L1645.71 199.281L1920 125.547V278.993H1645.71H1371.43H1097.14H820.856H546.571H272.285H-2V199.281Z" fill="#B84B72" />
    <path d="M-2 193.302L272.285 191.309L546.571 181.345L820.856 215.223L1097.14 237.144L1371.43 205.259L1645.71 241.13L1920 181.345V278.993H1645.71H1371.43H1097.14H820.856H546.571H272.285H-2V193.302Z" fill="var(--section-bg, #9D174D)" />
  </g>
  <defs>
    <clipPath id="clip0_437_768">
      <rect width="1922" height="277" fill="white" transform="translate(-2)" />
    </clipPath>
  </defs>
</svg>
